# 3ds Max Wavefront OBJ Exporter v0.97b - (c)2007 guruware
# File Created: 02.10.2014 13:23:04

mtllib recycler_tank.mtl

#
# object recycler_tank
#

v  -7.383919 94.248909 -4.730014
v  -7.383919 94.248909 4.730014
v  -4.730014 94.248909 7.383919
v  4.730014 94.248909 -7.383919
v  4.730014 94.248909 7.383919
v  7.383918 94.248909 4.730014
v  7.383918 94.248909 -4.730014
v  -4.730014 94.248909 -7.383919
v  -5.385253 55.755241 8.965806
v  5.385253 55.755241 8.965806
v  8.380631 61.330498 16.197287
v  -8.380631 61.330498 16.197287
v  8.965807 55.755241 5.385253
v  16.197287 61.330498 8.380630
v  8.965807 55.755241 -5.385254
v  16.197287 61.330498 -8.380632
v  5.385253 55.755241 -8.965807
v  8.380631 61.330498 -16.197287
v  -5.385253 55.755241 -8.965807
v  -8.380631 61.330498 -16.197287
v  -8.965807 55.755241 -5.385254
v  -16.197287 61.330498 -8.380632
v  -8.965807 55.755241 5.385253
v  -16.197287 61.330498 8.380630
v  8.380631 86.707504 16.197287
v  -8.380631 86.707504 16.197287
v  16.197287 86.707504 8.380629
v  16.197287 86.707504 -8.380632
v  8.380631 86.707512 -16.197285
v  -8.380631 86.707512 -16.197285
v  -16.197287 86.707504 -8.380632
v  -16.197287 86.707504 8.380629
v  -1.613737 55.755241 3.482454
v  1.613737 55.755241 3.482454
v  -3.482455 55.755241 1.613737
v  -3.482455 55.755241 -1.613738
v  -1.613737 55.755241 -3.482456
v  1.613737 55.755241 -3.482456
v  3.482455 55.755241 -1.613738
v  3.482455 55.755241 1.613737
# 40 vertices

vn 0.000000 1.000000 -0.000000
vn 0.000000 -0.791958 0.610576
vn 0.431742 -0.791958 0.431742
vn 0.610576 -0.791958 -0.000000
vn 0.431742 -0.791958 -0.431742
vn 0.000000 -0.791958 -0.610576
vn -0.431742 -0.791958 -0.431742
vn -0.610576 -0.791958 -0.000000
vn -0.431742 -0.791958 0.431742
vn 0.000000 0.000000 1.000000
vn 0.707107 0.000000 0.707107
vn 1.000000 0.000000 -0.000000
vn 0.707107 0.000000 -0.707107
vn 0.000000 0.000000 -1.000000
vn -0.707107 0.000000 -0.707107
vn -1.000000 0.000000 -0.000000
vn -0.707107 0.000000 0.707107
vn 0.000000 0.759806 0.650150
vn 0.459725 0.759806 0.459725
vn 0.650149 0.759806 -0.000000
vn 0.459725 0.759806 -0.459725
vn 0.000000 0.759807 -0.650149
vn -0.459725 0.759806 -0.459725
vn -0.650150 0.759806 -0.000000
vn -0.459725 0.759806 0.459725
vn 0.000000 -1.000000 -0.000000
# 26 vertex normals

vt 0.887587 0.772245 -0.356322
vt 0.811603 0.772245 -0.356322
vt 0.790287 0.750929 -0.356322
vt 0.908903 0.674946 -0.356322
vt 0.790287 0.674946 -0.356322
vt 0.811603 0.653630 -0.356322
vt 0.887587 0.653630 -0.356322
vt 0.908903 0.750929 -0.356322
vt 0.708779 0.363207 0.000000
vt 0.780917 0.363207 0.000000
vt 0.776688 0.405270 1.640144
vt 0.713008 0.405270 1.640144
vt 0.813526 0.363207 0.000000
vt 0.817755 0.405270 1.640144
vt 0.885664 0.363207 0.000000
vt 0.881435 0.405270 1.640145
vt 0.918273 0.363207 0.000000
vt 0.922502 0.405270 1.640144
vt 0.990411 0.363207 0.000000
vt 0.986182 0.405270 1.640144
vt 0.571423 0.363207 0.000000
vt 0.604032 0.363207 0.000000
vt 0.608261 0.405270 1.640144
vt 0.567194 0.405270 1.640144
vt 0.676170 0.363207 0.000000
vt 0.671941 0.405270 1.640144
vt 0.776688 0.596732 1.640144
vt 0.713008 0.596732 1.640144
vt 0.817755 0.596732 1.640144
vt 0.881435 0.596732 1.640145
vt 0.922502 0.596732 1.640144
vt 0.986182 0.596732 1.640144
vt 0.608261 0.596732 1.640144
vt 0.567194 0.596732 1.640144
vt 0.671941 0.596732 1.640144
vt 0.782840 0.653630 -0.356322
vt 0.706856 0.653630 -0.356322
vt 0.916350 0.653630 -0.356322
vt 0.992334 0.653630 -0.356322
vt 0.602110 0.653630 -0.356322
vt 0.573346 0.653630 -0.356322
vt 0.678093 0.653630 -0.356322
vt 0.734040 0.326481 0.000000
vt 0.755656 0.326481 0.000000
vt 0.684797 0.339225 0.000000
vt 0.721524 0.313965 0.000000
vt 0.684797 0.267088 0.000000
vt 0.721524 0.292348 0.000000
vt 0.708779 0.243106 0.000000
vt 0.734040 0.279832 0.000000
vt 0.780917 0.243106 0.000000
vt 0.755656 0.279832 0.000000
vt 0.804898 0.267088 0.000000
vt 0.768172 0.292348 0.000000
vt 0.804898 0.339225 0.000000
vt 0.768172 0.313965 0.000000
# 56 texture coords

g recycler_tank
usemtl recycler
s off
f 1/1/1 2/2/1 3/3/1 4/4/1 
f 3/3/1 5/5/1 6/6/1 4/4/1 
f 6/6/1 7/7/1 4/4/1 
f 1/1/1 4/4/1 8/8/1 
f 9/9/2 10/10/2 11/11/2 12/12/2 
f 10/10/3 13/13/3 14/14/3 11/11/3 
f 13/13/4 15/15/4 16/16/4 14/14/4 
f 15/15/5 17/17/5 18/18/5 16/16/5 
f 17/17/6 19/19/6 20/20/6 18/18/6 
f 19/21/7 21/22/7 22/23/7 20/24/7 
f 21/22/8 23/25/8 24/26/8 22/23/8 
f 23/25/9 9/9/9 12/12/9 24/26/9 
f 12/12/10 11/11/10 25/27/10 26/28/10 
f 11/11/11 14/14/11 27/29/11 25/27/11 
f 14/14/12 16/16/12 28/30/12 27/29/12 
f 16/16/13 18/18/13 29/31/13 28/30/13 
f 18/18/14 20/20/14 30/32/14 29/31/14 
f 20/24/15 22/23/15 31/33/15 30/34/15 
f 22/23/16 24/26/16 32/35/16 31/33/16 
f 24/26/17 12/12/17 26/28/17 32/35/17 
f 26/28/18 25/27/18 5/36/18 3/37/18 
f 25/27/19 27/29/19 6/6/19 5/36/19 
f 27/29/20 28/30/20 7/7/20 6/6/20 
f 28/30/21 29/31/21 4/38/21 7/7/21 
f 29/31/22 30/32/22 8/39/22 4/38/22 
f 30/34/23 31/33/23 1/40/23 8/41/23 
f 31/33/24 32/35/24 2/42/24 1/40/24 
f 32/35/25 26/28/25 3/37/25 2/42/25 
f 10/10/26 9/9/26 33/43/26 34/44/26 
f 9/9/26 23/45/26 35/46/26 33/43/26 
f 23/45/26 21/47/26 36/48/26 35/46/26 
f 21/47/26 19/49/26 37/50/26 36/48/26 
f 19/49/26 17/51/26 38/52/26 37/50/26 
f 17/51/26 15/53/26 39/54/26 38/52/26 
f 15/53/26 13/55/26 40/56/26 39/54/26 
f 13/55/26 10/10/26 34/44/26 40/56/26 
# 34 polygons - 2 triangles

