# 3ds Max Wavefront OBJ Exporter v0.97b - (c)2007 guruware
# File Created: 30.09.2014 16:47:07

mtllib rock_02.mtl

#
# object rock_02
#

v  -1.728218 0.000000 6.688417
v  -4.174483 0.000000 6.806522
v  -6.775958 0.000000 5.115334
v  1.974634 0.064038 6.404742
v  -6.523351 0.000000 2.282601
v  -7.259999 0.000000 -0.042879
v  -5.789827 0.000000 -2.154580
v  -5.774519 0.000000 -5.142588
v  -5.880588 0.000000 -7.341119
v  -2.929822 0.000000 -8.066965
v  -0.501134 0.000000 -8.577305
v  1.873740 0.000000 -8.508480
v  7.400290 0.000000 -5.619697
v  5.544316 0.000000 -7.063891
v  7.899191 0.000000 -2.474804
v  7.744086 0.000000 1.407613
v  6.432844 0.008727 4.624877
v  5.546675 0.000000 7.078782
v  3.944649 0.013453 7.209348
v  0.160081 0.003976 6.786817
v  0.215780 6.944253 3.930542
v  1.186216 6.829184 4.076686
v  1.484101 8.467493 2.591704
v  0.322047 7.748024 3.515628
v  2.467304 6.299576 2.538753
v  3.275842 7.769607 1.371155
v  4.811576 7.469237 1.447142
v  5.247388 8.581133 0.180812
v  6.700813 7.961617 -0.280582
v  5.817866 8.874635 -0.497796
v  6.976938 7.838699 -0.673601
v  6.689957 8.097578 -1.339446
v  0.416086 9.990582 1.180546
v  -0.198884 9.058287 1.924995
v  1.704624 10.563240 0.866383
v  4.486611 10.025480 -1.085227
v  4.978312 9.293769 -1.648297
v  5.023864 7.929749 -2.825768
v  -1.574213 9.721572 -0.366930
v  -1.129292 9.138986 0.976499
v  -0.018549 10.198652 -0.366846
v  2.063442 10.478694 -3.197092
v  3.376431 9.374090 -2.811198
v  4.069686 8.399042 -3.502805
v  -3.011572 9.603977 -1.790446
v  -1.862578 8.936174 0.345251
v  -0.994552 10.303999 -2.343402
v  0.573071 11.163631 -3.210757
v  2.068691 10.306128 -3.610210
v  3.223670 8.964253 -3.700068
v  -3.182382 8.750265 -2.148067
v  -2.992392 7.995182 -0.309510
v  -2.546532 8.708617 -3.455112
v  -1.647930 9.080663 -3.741815
v  0.355016 10.284515 -3.856503
v  1.954390 9.187287 -4.384846
v  2.049300 1.942994 7.078356
v  -0.068462 1.766662 7.544782
v  4.081580 1.885680 6.867190
v  5.226226 1.833423 6.079717
v  6.182964 1.812248 3.723997
v  7.379013 1.757548 0.819675
v  1.830426 3.426388 6.761696
v  -0.746038 3.143836 7.806648
v  4.758975 3.667869 5.483823
v  4.950068 3.472771 4.277387
v  5.500585 3.576297 3.030617
v  7.110555 3.854549 1.758515
v  2.622711 4.487126 5.298396
v  -1.375810 3.542842 6.427078
v  4.020617 4.325448 4.882942
v  4.552682 4.333987 4.089042
v  5.103705 5.174695 3.603546
v  6.685660 5.494187 2.273559
v  1.868975 5.463881 4.182488
v  0.443831 6.093958 5.158505
v  3.538535 4.901933 4.002873
v  4.031173 5.407174 3.780238
v  5.093781 6.597434 3.336869
v  6.151432 6.506602 1.566513
v  8.631494 1.678795 -2.404441
v  6.679967 1.665310 -4.906819
v  5.528300 1.665310 -7.330077
v  1.945619 1.665310 -7.936415
v  -0.263659 1.665310 -7.903710
v  7.739661 5.310240 -0.662754
v  6.995580 3.505413 -3.644076
v  3.416550 3.376546 -6.153943
v  2.394222 3.330621 -7.992525
v  0.292249 3.330621 -8.028926
v  7.302620 6.348573 -0.614371
v  5.740583 5.216102 -2.980654
v  3.719851 5.374751 -5.052605
v  2.833413 5.206571 -6.561801
v  0.966163 5.000957 -7.563004
v  6.929204 7.119359 -1.013070
v  5.373094 6.602510 -3.020907
v  4.632755 6.930988 -4.151310
v  3.936215 7.268074 -4.717087
v  2.094799 6.952199 -5.635337
v  -2.202674 1.665310 -7.430089
v  -4.478615 1.665310 -6.354310
v  -5.997996 1.665310 -3.665351
v  -5.712893 2.311076 -1.167946
v  -6.582026 1.645005 0.480528
v  -1.671260 3.521212 -6.781528
v  -3.403197 3.521772 -5.306963
v  -5.085314 3.546542 -2.840927
v  -6.009358 5.508180 -0.675801
v  -5.721891 3.335876 1.163351
v  -2.096525 5.791803 -6.455008
v  -3.251672 5.425440 -5.790193
v  -4.506011 5.138638 -3.221821
v  -5.470158 6.334172 -0.801457
v  -4.306056 4.962564 0.904728
v  -0.282525 7.043082 -4.542361
v  -2.228991 6.642541 -5.139019
v  -3.349573 6.786414 -3.895842
v  -3.930021 7.093951 -1.669144
v  -4.218193 6.769209 0.190616
v  -7.076344 1.569038 3.292135
v  -6.473255 1.594209 5.050752
v  -4.724303 1.661481 6.500272
v  -2.572586 1.665310 7.040703
v  -5.812596 3.015319 2.792783
v  -5.199663 3.177184 3.768090
v  -3.987721 3.277593 4.148681
v  -3.310034 3.211349 6.529504
v  -3.910730 5.492507 1.710103
v  -3.735529 5.973791 2.288243
v  -3.408273 6.266706 4.437147
v  -1.080479 4.971482 4.691368
v  -2.360638 6.820937 1.391001
v  -1.755797 6.983115 1.893686
v  -1.407438 6.861562 2.315571
v  -1.402679 6.649436 3.067141
# 136 vertices

vn 0.012145 -0.999018 -0.042598
vn 0.000000 -1.000000 -0.000000
vn 0.006566 -0.999975 -0.002624
vn -0.003539 -0.999960 -0.008178
vn 0.002132 -0.999996 0.001987
vn -0.001495 -0.999996 0.002222
vn -0.005753 -0.999983 0.000281
vn -0.012315 -0.999919 -0.003275
vn -0.008950 -0.999937 -0.006788
vn -0.016252 -0.999772 -0.013819
vn 0.008197 -0.993077 -0.117180
vn -0.234567 0.671410 0.702984
vn 0.425409 0.578606 0.695875
vn 0.369090 0.593527 0.715191
vn -0.095345 0.563963 0.820278
vn 0.477873 0.514780 0.711785
vn 0.462449 0.474641 0.748904
vn 0.194482 0.698947 0.688222
vn 0.335249 0.693848 0.637325
vn 0.682873 0.590997 0.429426
vn 0.425996 0.878720 0.215358
vn 0.974470 -0.090396 -0.205518
vn 0.788298 0.449185 -0.420499
vn -0.282415 0.808004 0.517079
vn -0.463681 0.629434 0.623549
vn 0.143291 0.875991 0.460552
vn 0.572474 0.817203 0.066727
vn 0.683032 0.639926 -0.352081
vn 0.667373 0.389433 -0.634788
vn -0.413274 0.839095 0.353729
vn -0.546283 0.623845 0.558921
vn -0.233051 0.958218 0.165848
vn 0.434904 0.882460 -0.179231
vn 0.575845 0.637503 -0.511852
vn 0.576213 0.551258 -0.603401
vn -0.792647 0.606820 0.058993
vn -0.652455 0.540098 0.531598
vn -0.445607 0.890657 -0.090356
vn -0.029068 0.967361 -0.251731
vn 0.427379 0.679684 -0.596136
vn 0.559969 0.606868 -0.564044
vn -0.925171 0.370878 -0.080676
vn -0.726575 0.660363 0.189762
vn -0.609775 0.563670 -0.557181
vn -0.356309 0.587389 -0.726649
vn -0.178636 0.516585 -0.837394
vn 0.247879 0.518661 -0.818258
vn 0.097089 -0.375697 0.921643
vn 0.040625 -0.223833 0.973780
vn 0.207356 -0.005641 0.978249
vn 0.096947 -0.208040 0.973304
vn -0.055541 0.293825 0.954244
vn 0.290347 0.310559 0.905125
vn 0.498722 0.472552 0.726617
vn 0.648099 0.490702 0.582390
vn 0.894097 0.293236 0.338530
vn 0.851656 0.332068 0.405480
vn 0.923973 0.210374 0.319400
vn 0.924602 0.154359 0.348259
vn 0.269333 0.499066 0.823646
vn -0.069642 0.432960 0.898719
vn 0.763610 0.398880 0.507735
vn 0.844455 0.381857 0.375607
vn 0.738549 0.239451 0.630244
vn 0.874538 0.080184 0.478283
vn 0.190416 0.783657 0.591289
vn -0.125686 0.853989 0.504882
vn 0.329187 0.790358 0.516691
vn 0.546771 0.484589 0.682799
vn 0.639172 0.148586 0.754573
vn 0.734624 0.329164 0.593278
vn 0.453564 0.611353 0.648481
vn 0.096303 0.506355 0.856931
vn -0.021247 0.802824 0.595838
vn -0.233729 0.666343 0.708066
vn 0.052852 0.798883 0.599160
vn 0.769583 0.435118 0.467349
vn 0.939666 -0.234914 -0.248683
vn 0.975232 -0.005639 -0.221112
vn 0.846771 0.373626 -0.378658
vn 0.755038 0.440471 -0.485698
vn 0.437203 -0.077787 -0.895993
vn 0.539916 0.363530 -0.759168
vn 0.167821 0.325132 -0.930658
vn 0.116709 0.098042 -0.988315
vn -0.096187 0.392622 -0.914656
vn -0.176274 0.252547 -0.951393
vn 0.936177 0.348729 -0.044285
vn 0.665250 0.450599 -0.595317
vn 0.681353 0.506522 -0.528387
vn 0.337629 0.272894 -0.900853
vn -0.218063 0.127541 -0.967565
vn 0.913989 0.396084 -0.087982
vn 0.696374 0.415026 -0.585506
vn 0.747916 0.166331 -0.642616
vn 0.623986 0.365506 -0.690686
vn 0.029760 0.537467 -0.842759
vn 0.939074 0.269686 -0.213096
vn 0.785937 0.258085 -0.561868
vn 0.749301 0.279159 -0.600515
vn 0.590912 0.404025 -0.698275
vn 0.069629 0.571645 -0.817541
vn -0.252737 0.492394 -0.832870
vn -0.317946 0.448733 -0.835194
vn -0.576771 0.602544 -0.551611
vn -0.478801 0.640651 -0.600264
vn -0.986942 -0.151989 0.053334
vn -0.982143 0.139136 -0.126637
vn -0.969726 0.156156 -0.187740
vn -0.995036 0.064396 -0.075875
vn -0.895104 0.326276 -0.303864
vn -0.861340 0.449633 -0.236482
vn -0.532604 0.161239 -0.830864
vn -0.713385 0.294561 -0.635858
vn -0.689865 0.430121 -0.582308
vn -0.907067 0.413461 0.079237
vn -0.879270 0.460408 0.122097
vn -0.349184 0.533578 -0.770301
vn -0.718340 0.276055 -0.638578
vn -0.840475 0.298545 -0.452186
vn -0.759406 0.648834 0.048136
vn -0.698249 0.578507 0.421637
vn -0.130972 0.558460 -0.819127
vn -0.290940 0.697746 -0.654603
vn -0.767475 0.468742 -0.437336
vn -0.779586 0.606966 -0.154396
vn -0.621433 0.588878 0.516763
vn -0.901234 -0.373770 0.219258
vn -0.965938 0.172354 0.193025
vn -0.907915 0.150896 0.391051
vn -0.775406 0.433227 0.459412
vn -0.294220 -0.023932 0.955438
vn -0.505951 0.363603 0.782181
vn -0.063737 -0.284338 0.956603
vn -0.220348 -0.052241 0.974021
vn -0.748770 0.644919 0.153045
vn -0.586563 0.635381 0.502230
vn -0.455692 0.496753 0.738635
vn -0.480937 0.629745 0.610016
vn -0.745888 0.656275 -0.113813
vn -0.669820 0.724041 -0.164640
vn -0.393689 0.648096 0.651905
vn -0.386671 0.631785 0.671813
vn -0.577444 0.577598 0.577008
vn -0.547861 0.631282 0.548936
vn -0.491316 0.758280 0.428509
vn -0.233737 0.851899 0.468652
# 147 vertex normals

vt 0.353465 0.293287 1.002472
vt 0.308902 0.313886 1.098313
vt 0.252200 0.321562 1.140181
vt -0.563744 0.288440 0.971597
vt 0.206175 0.290821 0.992375
vt 0.153318 0.295551 1.011978
vt 0.100314 0.267497 0.908602
vt 0.038772 0.298699 1.025586
vt 0.010015 0.326668 1.170238
vt -0.042868 0.311032 1.083682
vt -0.090995 0.309737 1.077195
vt -0.137046 0.311074 1.083891
vt -0.254835 0.321614 1.140480
vt -0.212256 0.315744 1.108106
vt -0.312769 0.305699 1.057576
vt -0.392020 0.301649 1.038767
vt -0.462483 0.306638 1.060399
vt -0.505659 0.326478 1.169083
vt -0.531621 0.315246 1.102799
vt -0.605182 0.290083 0.988699
vt 0.396393 0.596856 0.493865
vt 0.430244 0.584404 0.516929
vt 0.460254 0.730348 0.473315
vt 0.400793 0.660502 0.486945
vt 0.500172 0.560628 0.411749
vt 0.562246 0.675404 0.453806
vt 0.584754 0.615360 0.578177
vt 0.627078 0.669513 0.641567
vt 0.642417 0.611561 0.752757
vt 0.648073 0.668546 0.708002
vt 0.651759 0.602145 0.777083
vt 0.668193 0.616498 0.763461
vt 0.417812 0.888924 0.509520
vt 0.369092 0.809824 0.456669
vt 0.534097 0.879704 0.582079
vt 0.670428 0.753483 0.675155
vt 0.685890 0.704989 0.671451
vt 0.719376 0.630491 0.639787
vt 0.149217 0.871591 0.488835
vt 0.274225 0.842880 0.438691
vt 0.176124 0.985206 0.501951
vt 1.534097 0.879704 0.582079
vt 0.801483 0.808633 0.644900
vt 1.176124 0.985206 0.501951
vt 0.748430 0.741939 0.597783
vt 0.752741 0.664390 0.619617
vt 0.080689 0.772539 0.578298
vt 0.201442 0.815992 0.434976
vt -0.016930 0.857344 0.569047
vt -0.198517 0.808633 0.644900
vt -0.125965 0.850700 0.679605
vt 0.811171 0.788030 0.652487
vt 0.874035 0.850700 0.679605
vt 0.777088 0.706012 0.609241
vt 0.069754 0.721359 0.537074
vt 0.150443 0.706347 0.434089
vt 0.012052 0.707499 0.559743
vt 0.983070 0.857344 0.569047
vt 0.975797 0.736538 0.561636
vt 1.012052 0.707499 0.559743
vt 0.888022 0.798422 0.633592
vt 0.829146 0.720301 0.613600
vt 0.394818 0.290083 0.988699
vt 0.436256 0.288440 0.971597
vt 0.434229 0.359686 0.926220
vt 0.390314 0.357686 0.958356
vt 0.468379 0.315246 1.102799
vt 0.473667 0.365919 0.981744
vt 0.494341 0.326478 1.169083
vt 0.500555 0.363691 0.980334
vt 0.537517 0.306638 1.060399
vt 0.549433 0.347871 0.890098
vt 0.607980 0.301649 1.038767
vt 0.618604 0.346232 0.894136
vt 0.431281 0.409250 0.832311
vt 0.377429 0.408726 0.936157
vt 0.500473 0.420000 0.835834
vt 0.521752 0.402620 0.760516
vt 0.554048 0.402259 0.720596
vt 0.597231 0.425548 0.809375
vt 0.459614 0.444392 0.684010
vt 0.359638 0.409931 0.793129
vt 0.495221 0.439502 0.722262
vt 0.518077 0.437409 0.693648
vt 0.536529 0.479593 0.690128
vt 0.583201 0.496030 0.763037
vt 0.451268 0.492320 0.530905
vt 0.402718 0.529175 0.607701
vt 0.498825 0.461106 0.605801
vt 0.513610 0.490218 0.617311
vt 0.541697 0.551944 0.678928
vt 0.594610 0.546556 0.689151
vt 0.687231 0.305699 1.057576
vt 0.682502 0.365386 1.032833
vt 0.745165 0.321614 1.140480
vt 0.742028 0.353418 0.957139
vt 0.787744 0.315744 1.108106
vt 0.791009 0.365904 1.040165
vt 0.862954 0.311074 1.083891
vt 0.859111 0.350725 0.941120
vt 0.909005 0.309737 1.077195
vt 0.905197 0.346982 0.919838
vt 0.650902 0.488558 0.820682
vt 0.716194 0.414396 0.848714
vt 0.814145 0.397194 0.754600
vt 0.850559 0.411613 0.891903
vt 0.893440 0.408581 0.863103
vt 0.650150 0.534179 0.777020
vt 0.714632 0.480988 0.665393
vt 0.792150 0.488704 0.633830
vt 0.831006 0.482183 0.728439
vt 0.878381 0.474365 0.784153
vt 0.659788 0.571146 0.753351
vt 0.719875 0.555425 0.639855
vt 0.757005 0.572655 0.647558
vt 0.781681 0.591427 0.646449
vt 0.839975 0.576882 0.622220
vt 0.957132 0.311032 1.083682
vt 0.947839 0.345397 0.911152
vt 1.010015 0.326668 1.170238
vt 1.001499 0.347878 0.924834
vt 0.068433 0.337531 0.870659
vt 0.001499 0.347878 0.924834
vt 0.125156 0.340099 0.737758
vt 0.166283 0.333606 0.856380
vt 0.940800 0.404224 0.755110
vt 0.996292 0.395963 0.696864
vt 0.076777 0.392770 0.668729
vt -0.003708 0.395963 0.696864
vt 0.138657 0.496224 0.674195
vt 0.186858 0.388031 0.707929
vt 0.953115 0.510334 0.702582
vt 0.986122 0.492212 0.694170
vt 1.076777 0.392770 0.668729
vt 1.059643 0.474297 0.596713
vt 0.134484 0.541947 0.621835
vt 0.059643 0.474297 0.596713
vt 0.190716 0.458177 0.513332
vt 0.913725 0.607486 0.479026
vt 0.970811 0.562705 0.588584
vt 1.021748 0.575677 0.555491
vt 0.098272 0.607386 0.496148
vt 0.021748 0.575677 0.555491
vt 0.166995 0.582986 0.500287
vt 0.220468 0.354461 0.987193
vt 0.254738 0.362017 1.031034
vt 0.297086 0.362146 1.014528
vt 0.338962 0.354219 0.962019
vt 0.223469 0.385194 0.789823
vt 0.250411 0.392099 0.785363
vt 0.277386 0.386457 0.716654
vt 0.321122 0.405760 0.882387
vt 0.221371 0.493844 0.501560
vt 0.241270 0.526131 0.519146
vt 0.293814 0.535962 0.659783
vt 0.356601 0.463200 0.574624
vt 0.243225 0.620233 0.364893
vt 0.283739 0.638477 0.361109
vt 0.311005 0.622537 0.370113
vt 0.327047 0.586672 0.431137
# 160 texture coords

g rock_02
usemtl piedra
s 1
f 1/1/1 2/2/2 3/3/3 4/4/4 
f 5/5/2 6/6/2 7/7/5 3/3/3 
f 8/8/2 9/9/2 10/10/2 7/7/5 
f 10/10/2 11/11/2 12/12/2 13/13/6 
f 12/12/2 14/14/2 13/13/6 
f 7/7/5 10/10/2 13/13/6 4/4/4 
f 13/13/6 15/15/2 16/16/7 17/17/8 
f 17/17/8 18/18/9 19/19/10 4/4/4 
f 13/13/6 17/17/8 4/4/4 
f 3/3/3 7/7/5 4/4/4 
f 20/20/11 1/1/1 4/4/4 
s 2
f 21/21/12 22/22/13 23/23/14 24/24/15 
f 22/22/13 25/25/16 26/26/17 23/23/14 
f 25/25/16 27/27/18 28/28/19 26/26/17 
f 27/27/18 29/29/20 30/30/21 28/28/19 
f 29/29/20 31/31/22 32/32/23 30/30/21 
f 24/24/15 23/23/14 33/33/24 34/34/25 
f 23/23/14 26/26/17 35/35/26 33/33/24 
f 26/26/17 28/28/19 36/36/27 35/35/26 
f 28/28/19 30/30/21 37/37/28 36/36/27 
f 30/30/21 32/32/23 38/38/29 37/37/28 
f 34/34/25 33/33/24 39/39/30 40/40/31 
f 33/33/24 35/35/26 41/41/32 39/39/30 
f 35/42/26 36/36/27 42/43/33 41/44/32 
f 36/36/27 37/37/28 43/45/34 42/43/33 
f 37/37/28 38/38/29 44/46/35 43/45/34 
f 40/40/31 39/39/30 45/47/36 46/48/37 
f 39/39/30 41/41/32 47/49/38 45/47/36 
f 41/41/32 42/50/33 48/51/39 47/49/38 
f 42/43/33 43/45/34 49/52/40 48/53/39 
f 43/45/34 44/46/35 50/54/41 49/52/40 
f 46/48/37 45/47/36 51/55/42 52/56/43 
f 45/47/36 47/49/38 53/57/44 51/55/42 
f 47/58/38 48/53/39 54/59/45 53/60/44 
f 48/53/39 49/52/40 55/61/46 54/59/45 
f 49/52/40 50/54/41 56/62/47 55/61/46 
f 20/63/48 4/64/49 57/65/50 58/66/51 
f 4/64/49 19/67/52 59/68/53 57/65/50 
f 19/67/52 18/69/54 60/70/55 59/68/53 
f 18/69/54 17/71/56 61/72/57 60/70/55 
f 17/71/56 16/73/58 62/74/59 61/72/57 
f 58/66/51 57/65/50 63/75/60 64/76/61 
f 57/65/50 59/68/53 65/77/62 63/75/60 
f 59/68/53 60/70/55 66/78/63 65/77/62 
f 60/70/55 61/72/57 67/79/64 66/78/63 
f 61/72/57 62/74/59 68/80/65 67/79/64 
f 64/76/61 63/75/60 69/81/66 70/82/67 
f 63/75/60 65/77/62 71/83/68 69/81/66 
f 65/77/62 66/78/63 72/84/69 71/83/68 
f 66/78/63 67/79/64 73/85/70 72/84/69 
f 67/79/64 68/80/65 74/86/71 73/85/70 
f 70/82/67 69/81/66 75/87/72 76/88/73 
f 69/81/66 71/83/68 77/89/74 75/87/72 
f 71/83/68 72/84/69 78/90/75 77/89/74 
f 72/84/69 73/85/70 79/91/76 78/90/75 
f 73/85/70 74/86/71 80/92/77 79/91/76 
f 76/88/73 75/87/72 22/22/13 21/21/12 
f 75/87/72 77/89/74 25/25/16 22/22/13 
f 77/89/74 78/90/75 27/27/18 25/25/16 
f 78/90/75 79/91/76 29/29/20 27/27/18 
f 79/91/76 80/92/77 31/31/22 29/29/20 
f 16/73/58 15/93/78 81/94/79 62/74/59 
f 15/93/78 13/95/80 82/96/81 81/94/79 
f 13/95/80 14/97/82 83/98/83 82/96/81 
f 14/97/82 12/99/84 84/100/85 83/98/83 
f 12/99/84 11/101/86 85/102/87 84/100/85 
f 62/74/59 81/94/79 86/103/88 68/80/65 
f 81/94/79 82/96/81 87/104/89 86/103/88 
f 82/96/81 83/98/83 88/105/90 87/104/89 
f 83/98/83 84/100/85 89/106/91 88/105/90 
f 84/100/85 85/102/87 90/107/92 89/106/91 
f 68/80/65 86/103/88 91/108/93 74/86/71 
f 86/103/88 87/104/89 92/109/94 91/108/93 
f 87/104/89 88/105/90 93/110/95 92/109/94 
f 88/105/90 89/106/91 94/111/96 93/110/95 
f 89/106/91 90/107/92 95/112/97 94/111/96 
f 74/86/71 91/108/93 96/113/98 80/92/77 
f 91/108/93 92/109/94 97/114/99 96/113/98 
f 92/109/94 93/110/95 98/115/100 97/114/99 
f 93/110/95 94/111/96 99/116/101 98/115/100 
f 94/111/96 95/112/97 100/117/102 99/116/101 
f 80/92/77 96/113/98 32/32/23 31/31/22 
f 96/113/98 97/114/99 38/38/29 32/32/23 
f 97/114/99 98/115/100 44/46/35 38/38/29 
f 98/115/100 99/116/101 50/54/41 44/46/35 
f 99/116/101 100/117/102 56/62/47 50/54/41 
f 11/101/86 10/118/103 101/119/104 85/102/87 
f 10/118/103 9/120/105 102/121/106 101/119/104 
f 9/9/105 8/8/107 103/122/108 102/123/106 
f 8/8/107 7/7/109 104/124/110 103/122/108 
f 7/7/109 6/6/111 105/125/112 104/124/110 
f 85/102/87 101/119/104 106/126/113 90/107/92 
f 101/119/104 102/121/106 107/127/114 106/126/113 
f 102/123/106 103/122/108 108/128/115 107/129/114 
f 103/122/108 104/124/110 109/130/116 108/128/115 
f 104/124/110 105/125/112 110/131/117 109/130/116 
f 90/107/92 106/126/113 111/132/118 95/112/97 
f 106/126/113 107/127/114 112/133/119 111/132/118 
f 107/127/114 108/134/115 113/135/120 112/133/119 
f 108/128/115 109/130/116 114/136/121 113/137/120 
f 109/130/116 110/131/117 115/138/122 114/136/121 
f 95/112/97 111/132/118 116/139/123 100/117/102 
f 111/132/118 112/133/119 117/140/124 116/139/123 
f 112/133/119 113/135/120 118/141/125 117/140/124 
f 113/137/120 114/136/121 119/142/126 118/143/125 
f 114/136/121 115/138/122 120/144/127 119/142/126 
f 100/117/102 116/139/123 55/61/46 56/62/47 
f 116/139/123 117/140/124 54/59/45 55/61/46 
f 117/140/124 118/141/125 53/60/44 54/59/45 
f 118/143/125 119/142/126 51/55/42 53/57/44 
f 119/142/126 120/144/127 52/56/43 51/55/42 
f 6/6/111 5/5/128 121/145/129 105/125/112 
f 5/5/128 3/3/130 122/146/131 121/145/129 
f 3/3/130 2/2/132 123/147/133 122/146/131 
f 2/2/132 1/1/134 124/148/135 123/147/133 
f 1/1/134 20/63/48 58/66/51 124/148/135 
f 105/125/112 121/145/129 125/149/136 110/131/117 
f 121/145/129 122/146/131 126/150/137 125/149/136 
f 122/146/131 123/147/133 127/151/138 126/150/137 
f 123/147/133 124/148/135 128/152/139 127/151/138 
f 124/148/135 58/66/51 64/76/61 128/152/139 
f 115/138/122 110/131/117 125/149/136 129/153/140 
f 129/153/140 125/149/136 126/150/137 130/154/141 
f 126/150/137 127/151/138 131/155/142 130/154/141 
f 127/151/138 128/152/139 132/156/143 131/155/142 
f 128/152/139 64/76/61 70/82/67 132/156/143 
f 115/138/122 129/153/140 133/157/144 120/144/127 
f 134/158/145 133/157/144 129/153/140 130/154/141 
f 130/154/141 131/155/142 135/159/146 134/158/145 
f 131/155/142 132/156/143 136/160/147 135/159/146 
f 132/156/143 70/82/67 76/88/73 136/160/147 
f 120/144/127 133/157/144 46/48/37 52/56/43 
f 133/157/144 134/158/145 40/40/31 46/48/37 
f 134/158/145 135/159/146 34/34/25 40/40/31 
f 135/159/146 136/160/147 24/24/15 34/34/25 
f 136/160/147 76/88/73 21/21/12 24/24/15 
# 132 polygons - 4 triangles

