<?xml version="1.0" encoding="UTF-8" standalone="no"?>
<svg
   xmlns:svg="http://www.w3.org/2000/svg"
   xmlns="http://www.w3.org/2000/svg"
   viewBox="0 0 150 150">
  <path
     d="m 31.439019,150.21157 c -5.82e-4,-0.0434 -5.214236,-18.21129 -11.58555,-40.37323 L 8.2692583,69.543901 9.6632585,66.982524 C 12.324517,62.092657 25.479397,39.7104 25.948194,39.274662 c 0.240015,-0.223092 10.181841,6.228866 26.308626,17.073515 2.909184,1.956322 5.39442,3.81553 5.522746,4.131579 0.12833,0.316048 0.621612,2.324769 1.096192,4.463829 0.877805,3.956441 16.245039,84.072735 16.245039,84.692655 0,0.21341 -1.002468,0.33899 -2.705834,0.33899 l -2.705828,0 -0.356674,-1.65436 c -0.19617,-0.9099 -2.585856,-12.71495 -5.31042,-26.23344 C 61.31748,108.56894 57.498144,89.780128 55.55463,80.334531 l -3.533667,-17.173847 -2.014905,0.06704 c -1.1082,0.03688 -2.743471,0.228049 -3.633935,0.424898 -1.402495,0.310048 -1.596663,0.448593 -1.451816,1.035911 0.09197,0.372914 1.86378,9.327955 3.937362,19.900108 3.314089,16.896929 12.105341,60.705399 12.915925,64.362509 l 0.296835,1.33924 -15.315031,0 c -8.42327,0 -15.31564,-0.0355 -15.316379,-0.0788 l 0,0 z"/>
  <path
     d="m 75.462049,110.77378 c 0,-0.37337 -10.564538,-54.791994 -10.649042,-54.853923 -0.05524,-0.0405 -3.819301,-2.584912 -8.364586,-5.654284 C 49.168254,45.349357 48.161749,44.565412 47.995105,43.681509 47.64963,41.849043 47.218224,27.878519 47.487318,27.237426 47.883733,26.293022 57.354047,16.852445 69.042576,5.74986 l 4.70726,-4.4712797 4.373985,4.4712797 c 2.405696,2.4592112 7.935339,8.209043 12.2881,12.777415 7.252665,7.611928 7.91348,8.402033 7.906599,9.453485 -0.0041,0.631053 -0.452182,8.892366 -0.995677,18.358472 l -0.988156,17.211111 -3.967983,9.068825 c -2.182398,4.987844 -4.185223,9.437849 -4.450727,9.888893 l -0.482735,0.820067 -0.013,-1.260463 c -0.01395,-1.352685 1.476043,-31.480874 2.033756,-41.122682 0.185463,-3.206307 0.337996,-6.786819 0.338964,-7.956681 l 0.0018,-2.127036 -3.536408,0 -3.536406,0 -0.223884,2.914818 c -0.422872,5.505485 -1.542886,24.687862 -2.78284,47.661349 l -1.241568,23.003497 -1.394062,3.22992 c -1.219428,2.82535 -1.61748,3.58895 -1.61748,3.10293 z"/>
  <path
     d="m 104.96467,41.575215 c 0.0882,-0.95323 0.26671,-3.418058 0.39676,-5.47741 l 0.23647,-3.744254 6.21302,-6.181902 c 6.18046,-6.14951 8.01407,-7.872518 8.01407,-7.530665 0,0.401768 -1.73133,10.386954 -2.29783,13.252431 l -0.60899,3.080404 -4.69877,2.040229 c -2.58433,1.122132 -4.82605,2.04024 -4.98163,2.04024 -0.15558,0 -0.76675,0.957163 -1.35814,2.127036 l -1.07528,2.127036 0.16032,-1.733145 z"/>
  <path
     d="m 93.207226,150.13518 c 0,-0.0854 7.415644,-13.73382 16.479214,-30.32994 9.06357,-16.59614 19.89915,-36.554698 24.07909,-44.352359 l 7.59989,-14.177595 -0.78752,-0.588853 c -0.98875,-0.739316 -4.54773,-2.410372 -5.13083,-2.409093 -0.58293,9.38e-4 -5.22799,8.259256 -27.73932,49.31474 -23.532784,42.91837 -23.226916,42.38315 -24.221203,42.38315 -0.563611,0 -0.599514,-0.15597 -3.264008,-14.18024 L 78.097187,124.60837 95.463238,84.606605 112.8293,44.60484 l 4.4363,-1.849999 c 9.16059,-3.820103 22.98197,-9.372648 23.3304,-9.372648 0.37835,0 3.24245,7.900882 6.87021,18.952122 l 2.1354,6.505028 -24.86997,45.721097 -24.869969,45.72112 -3.327225,0.004 c -1.829971,0.002 -3.32722,-0.0654 -3.32722,-0.15076 l 0,10e-6 z"/>
  <path
     d="m 109.98086,147.48545 c 0.0651,-0.17036 3.65039,-6.75141 7.96724,-14.62454 l 7.84883,-14.31478 7.9928,-3.19078 c 4.39605,-1.75492 8.03027,-3.15606 8.07606,-3.11365 0.10454,0.0969 -7.9036,19.12462 -9.46313,22.48491 l -1.15396,2.4864 -6.30905,3.1615 c -10.40629,5.21465 -15.08389,7.43823 -14.95879,7.11094 z"/>
  <path
     d="M 11.844402,143.279 C 6.2310828,128.22114 0.7906304,112.43131 1.2748067,112.60288 c 3.0047744,1.06472 12.8758703,5.45385 13.0141843,5.78668 0.09987,0.24031 2.204122,7.40996 4.676129,15.93252 l 4.494548,15.49559 -2.066901,0.1995 c -1.136798,0.10973 -3.162147,0.21609 -4.500778,0.23634 l -2.433881,0.0369 -2.613706,-7.01134 z"/>
</svg>
