<?xml version="1.0" encoding="UTF-8" standalone="no"?>
<svg
   xmlns:svg="http://www.w3.org/2000/svg"
   xmlns="http://www.w3.org/2000/svg"
   viewBox="0 0 260 110">
  <g transform="translate(-327.79125,-180.81345)">
    <path
       d="m 338.29409,289.57839 c -4.88162,-2.30302 -6.93967,-4.08579 -8.74054,-7.5715 -3.89895,-7.54666 -1.20158,-15.18213 6.8366,-19.35249 l 4.96839,-2.57769 68.14418,0 68.14417,0 4.96838,2.57769 c 11.71348,6.07719 11.47243,20.58048 -0.4351,26.17768 -4.29316,2.01802 -4.99181,2.0368 -72.90753,1.95939 -50.52557,-0.0575 -69.20599,-0.37685 -70.97855,-1.21308 z m 18.2833,-9.29383 c 2.56287,-2.74357 3.0798,-2.88683 10.41598,-2.88683 7.29393,0 7.87834,0.15906 10.60611,2.88683 1.58776,1.58776 3.81951,2.88684 4.95943,2.88684 1.13994,0 3.37168,-1.29908 4.95944,-2.88684 2.61429,-2.6143 3.47622,-2.88683 9.12975,-2.88683 5.75525,0 6.43267,0.2255 8.67204,2.88683 1.84939,2.19789 3.23515,2.88684 5.80661,2.88684 2.51198,0 4.06854,-0.73977 6.07419,-2.88684 2.48584,-2.66109 3.20924,-2.88683 9.25101,-2.88683 5.82518,0 6.77242,0.26741 8.51501,2.40389 1.07839,1.32215 3.36147,2.67404 5.07353,3.00421 2.64443,0.50998 3.53511,0.14826 5.91917,-2.4039 2.62721,-2.81242 3.23771,-3.0042 9.56335,-3.0042 6.22473,0 6.9844,0.2274 9.64382,2.88683 1.58776,1.58776 3.54931,2.88684 4.35899,2.88684 2.73172,0 6.15516,-2.122 7.23029,-4.48164 1.54609,-3.39332 1.34119,-4.71667 -1.18502,-7.65356 -3.07119,-3.57048 -7.79834,-3.59387 -10.8435,-0.0537 -2.02682,2.35634 -2.79811,2.56608 -9.43662,2.56608 -6.30087,0 -7.36485,-0.2531 -8.28404,-1.97062 -2.3538,-4.39811 -10.1658,-4.28734 -12.5556,0.17804 -0.79681,1.48889 -2.11102,1.79261 -7.75652,1.79261 -6.31161,0 -6.9898,-0.20622 -9.49387,-2.88684 -2.00565,-2.14706 -3.56221,-2.88683 -6.07419,-2.88683 -2.57146,0 -3.95722,0.68894 -5.80661,2.88683 -2.24805,2.67166 -2.90343,2.88684 -8.79221,2.88684 -5.70002,0 -6.59311,-0.2674 -8.57034,-2.56608 -1.56586,-1.82041 -3.13463,-2.56607 -5.39868,-2.56607 -2.26404,0 -3.83281,0.74566 -5.39867,2.56607 -2.06659,2.40257 -2.72434,2.56608 -10.32209,2.56608 -7.48219,0 -8.23172,-0.17835 -9.6137,-2.28751 -2.01263,-3.07168 -5.73487,-3.89026 -9.30193,-2.04566 -6.79249,3.51253 -3.68508,13.87906 4.17911,13.94177 0.97848,0.008 2.99257,-1.28489 4.47576,-2.87265 z m -7.50578,-2.11701 c -2.91686,-2.91686 1.05138,-8.14272 4.19931,-5.53017 2.43904,2.02422 1.05437,6.6849 -1.98606,6.6849 -0.58218,0 -1.57814,-0.51963 -2.21325,-1.15473 z m 31.15034,-0.35742 c -0.83169,-0.83168 -1.51215,-1.88331 -1.51215,-2.33696 0,-1.06899 2.78013,-3.84912 3.84911,-3.84912 1.30235,0 3.84912,2.88819 3.84912,4.36513 0,0.73746 -0.83758,1.7891 -1.8613,2.33697 -2.4072,1.28829 -2.53582,1.27294 -4.32478,-0.51602 z m 27.75578,0.20317 c -0.30347,-0.79084 -0.40926,-2.44368 -0.2351,-3.67299 0.24797,-1.7502 0.92024,-2.23512 3.09864,-2.23512 3.42912,0 5.39823,2.58252 3.852,5.05197 -1.3713,2.19008 -5.97827,2.77741 -6.71554,0.85614 z m 30.5858,0.15425 c -2.91686,-2.91686 1.05138,-8.14272 4.19931,-5.53017 2.43904,2.02422 1.05436,6.6849 -1.98607,6.6849 -0.58217,0 -1.57813,-0.51963 -2.21324,-1.15473 z m 29.22578,-0.35742 c -0.83169,-0.83168 -1.51216,-1.88331 -1.51216,-2.33696 0,-0.45365 0.68047,-1.50528 1.51216,-2.33696 0.83167,-0.83169 1.88331,-1.51216 2.33696,-1.51216 1.30235,0 3.84911,2.88819 3.84911,4.36513 0,0.73746 -0.83758,1.7891 -1.86129,2.33697 -2.4072,1.28829 -2.53582,1.27294 -4.32478,-0.51602 z m 79.3474,4.77758 c -7.23662,-1.84705 -10.39526,-5.38431 -11.56343,-12.94946 -0.74099,-4.79872 -1.69508,-15.42032 2.13991,-18.86471 l 1.03709,-2.72776 2.66011,3.46446 c 11.78501,15.3485 26.84866,19.43677 40.48269,10.98695 l 4.75636,-2.9478 -1.46953,2.84177 c -2.95494,5.71425 -11.33008,13.67699 -17.72531,16.85253 -6.67799,3.31595 -15.03743,4.69178 -20.31789,3.34402 z m -189.8976,-30.35483 c -0.79994,-1.242 -1.75137,-3.88475 -2.1143,-5.87277 -0.78159,-4.28138 0.82954,-20.28415 0.57897,-22.30039 -0.46487,-3.74054 -4.83276,-16.18955 -2.56401,-16.19797 3.36061,1.70354 6.39635,6.54901 12.99558,7.78989 25.72061,3.90156 42.35277,1.44275 44.34619,-0.0251 7.13245,-2.49981 6.70754,-5.63577 10.22282,-7.64068 0.27693,4.23426 0.42442,8.35594 1.51445,11.50047 l 1.57016,4.52961 6.25549,0.68287 c 4.47121,0.48809 5.16476,0.46759 5.64838,-0.3149 0.40434,-0.65424 2.14399,-4.60638 1.43782,-8.68795 l 0.70265,-7.49842 10.42368,0.53199 c 8.63634,0.44077 11.37748,0.99866 15.98629,3.25354 8.91713,4.36274 11.81434,6.05798 9.15301,25.49166 l -0.25958,16.5 -57.22158,0.25818 -57.22159,0.25817 z M 468.17618,245.295 c 2.00284,-9.11887 -0.0139,-21.31705 -4.32761,-26.17493 -2.87734,-3.24035 -9.31613,-5.5999 -15.34523,-5.62341 -6.37876,-0.0249 -6.82764,0.56792 -6.85298,9.0499 -0.0323,10.80178 6.16844,19.94025 16.12488,23.76457 7.78605,2.99065 9.55894,2.81745 10.40094,-1.01613 z m 100.07167,12.35953 c -0.27879,-0.4511 -0.5972,-12.4886 -0.70757,-26.75 -0.22375,-28.91149 0.29085,-32.48897 5.48935,-38.16152 2.75944,-3.01107 3.96516,-3.58643 7.68982,-3.66965 l 4.41726,-0.0987 0.26655,29.5 c 0.18491,20.46516 -0.0845,30.34843 -0.87971,32.27025 -1.93072,4.66613 -6.45081,7.72975 -11.40455,7.72975 -2.40034,0 -4.59236,-0.36908 -4.87115,-0.82017 z M 476.6367,217.1281 c 0,-0.74063 -1.61443,-3.00895 -3.58764,-5.04069 l -3.58766,-3.69409 2.55569,-3.35067 c 3.64407,-4.77761 11.14657,-10.00739 20.94049,-14.59698 l 8.47382,-3.97097 32.58661,0 32.5866,0 -2.10169,4.03217 c -1.24007,2.37913 -2.31725,6.78623 -2.62753,10.75 -0.28923,3.69481 -1.02374,7.04973 -1.63227,7.45538 -0.60852,0.40565 -14.38141,0.66093 -30.60641,0.5673 -30.73305,-0.17736 -37.65329,0.47338 -45.06691,4.2378 -1.96179,0.99615 -4.15439,2.51906 -4.87244,3.38426 -1.60048,1.92846 -3.06066,2.03651 -3.06066,0.22649 z"
      />
    <path
       d="m 510.33151,286.56541 c -10.49762,-3.28651 -14.41076,-8.07406 -14.42589,-17.64942 l -0.0102,-6.43812 -10.6893,-4.52149 c -24.52066,-5.93936 -12.21089,-10.75309 -13.80558,-23.48764 3.63577,0 24.51525,7.03782 24.51525,4.22099 l 0,-5.71186 10.36232,0 10.36231,0 0.67203,5.71791 c 2.54462,21.65079 12.67545,42.16012 22.93074,46.42206 l 3.17259,1.31848 -4,0.71314 c -6.51083,1.1608 -24.67614,0.79601 -29.08427,-0.58405 z m -14.41572,-36.08754 0,-7.5 -18.14407,-3.79662 c -5.43495,1.53942 -3.90736,11.39709 0.43856,13.31646 1.85077,0.80753 16.54301,5.35372 16.95551,5.39859 0.4125,0.0449 0.75,-3.29343 0.75,-7.41843 z"/>
  </g>
</svg>
