<?xml version="1.0" encoding="UTF-8" standalone="no"?>
<svg
   xmlns:svg="http://www.w3.org/2000/svg"
   xmlns="http://www.w3.org/2000/svg"
   viewBox="0 0 211 92">
  <g>
    <path
       d="M 11.660488,90.0309 C 6.7788685,87.72788 4.7208185,85.94511 2.9199485,82.4594 c -3.89895002,-7.54666 -1.20158,-15.18213 6.8366,-19.35249 l 4.9683895,-2.57769 68.14418,0 68.144172,0 4.96838,2.57769 c 11.71348,6.07719 11.47243,20.58048 -0.4351,26.17768 -4.29316,2.01802 -4.99181,2.0368 -72.907532,1.95939 -50.52557,-0.0575 -69.20599,-0.37685 -70.97855,-1.21308 z m 18.2833,-9.29383 c 2.56287,-2.74357 3.0798,-2.88683 10.41598,-2.88683 7.29393,0 7.87834,0.15906 10.60611,2.88683 1.58776,1.58776 3.81951,2.88684 4.95943,2.88684 1.13994,0 3.37168,-1.29908 4.95944,-2.88684 2.61429,-2.6143 3.47622,-2.88683 9.12975,-2.88683 5.75525,0 6.43267,0.2255 8.67204,2.88683 1.84939,2.19789 3.23515,2.88684 5.80661,2.88684 2.51198,0 4.06854,-0.73977 6.07419,-2.88684 2.48584,-2.66109 3.20924,-2.88683 9.25101,-2.88683 5.825182,0 6.772422,0.26741 8.515012,2.40389 1.07839,1.32215 3.36147,2.67404 5.07353,3.00421 2.64443,0.50998 3.53511,0.14826 5.91917,-2.4039 2.62721,-2.81242 3.23771,-3.0042 9.56335,-3.0042 6.22473,0 6.9844,0.2274 9.64382,2.88683 1.58776,1.58776 3.54931,2.88684 4.35899,2.88684 2.73172,0 6.15516,-2.122 7.23029,-4.48164 1.54609,-3.39332 1.34119,-4.71667 -1.18502,-7.65356 -3.07119,-3.57048 -7.79834,-3.59387 -10.8435,-0.0537 -2.02682,2.35634 -2.79811,2.56608 -9.43662,2.56608 -6.30087,0 -7.36485,-0.2531 -8.28404,-1.97062 -2.3538,-4.39811 -10.1658,-4.28734 -12.5556,0.17804 -0.79681,1.48889 -2.11102,1.79261 -7.75652,1.79261 -6.311612,0 -6.989802,-0.20622 -9.493872,-2.88684 -2.00565,-2.14706 -3.56221,-2.88683 -6.07419,-2.88683 -2.57146,0 -3.95722,0.68894 -5.80661,2.88683 -2.24805,2.67166 -2.90343,2.88684 -8.79221,2.88684 -5.70002,0 -6.59311,-0.2674 -8.57034,-2.56608 -1.56586,-1.82041 -3.13463,-2.56607 -5.39868,-2.56607 -2.26404,0 -3.83281,0.74566 -5.39867,2.56607 -2.06659,2.40257 -2.72434,2.56608 -10.32209,2.56608 -7.48219,0 -8.23172,-0.17835 -9.6137,-2.28751 -2.01263,-3.07168 -5.73487,-3.89026 -9.30193,-2.04566 -6.79249,3.51253 -3.68508,13.87906 4.17911,13.94177 0.97848,0.008 2.99257,-1.28489 4.47576,-2.87265 z m -7.50578,-2.11701 c -2.91686,-2.91686 1.05138,-8.14272 4.19931,-5.53017 2.43904,2.02422 1.05437,6.6849 -1.98606,6.6849 -0.58218,0 -1.57814,-0.51963 -2.21325,-1.15473 z m 31.15034,-0.35742 c -0.83169,-0.83168 -1.51215,-1.88331 -1.51215,-2.33696 0,-1.06899 2.78013,-3.84912 3.84911,-3.84912 1.30235,0 3.84912,2.88819 3.84912,4.36513 0,0.73746 -0.83758,1.7891 -1.8613,2.33697 -2.4072,1.28829 -2.53582,1.27294 -4.32478,-0.51602 z m 27.75578,0.20317 c -0.30347,-0.79084 -0.40926,-2.44368 -0.2351,-3.67299 0.24797,-1.7502 0.92024,-2.23512 3.09864,-2.23512 3.42912,0 5.39823,2.58252 3.852,5.05197 -1.3713,2.19008 -5.97827,2.77741 -6.71554,0.85614 z m 30.585802,0.15425 c -2.91686,-2.91686 1.05138,-8.14272 4.19931,-5.53017 2.43904,2.02422 1.05436,6.6849 -1.98607,6.6849 -0.58217,0 -1.57813,-0.51963 -2.21324,-1.15473 z m 29.22578,-0.35742 c -0.83169,-0.83168 -1.51216,-1.88331 -1.51216,-2.33696 0,-0.45365 0.68047,-1.50528 1.51216,-2.33696 0.83167,-0.83169 1.88331,-1.51216 2.33696,-1.51216 1.30235,0 3.84911,2.88819 3.84911,4.36513 0,0.73746 -0.83758,1.7891 -1.86129,2.33697 -2.4072,1.28829 -2.53582,1.27294 -4.32478,-0.51602 z"
       />
    <path
       d="m 130.6416,57.25411 c 1.71693,-0.75688 3.85291,-2.4201 4.74661,-3.69604 1.41436,-2.01928 1.4383,-2.50651 0.18476,-3.76005 -3.33974,-3.339741 -27.12779,-6.186351 -72.053075,-8.622261 -42.82711,-2.32214 -41.56873,-2.32208 -44.69681,-0.002 -6.3652,4.72054 -7.33219,11.796131 -2.08242,15.237351 2.47309,1.6211 7.02903,1.78099 56.73413,1.99102 44.078165,0.18625 54.620805,-0.0254 57.166805,-1.14778 z M 93.019895,39.859329 c 3.790915,-2.04485 9.030045,-8.93457 9.275895,-12.19825 0.15124,-2.00778 0.56322,-2.02292 46.68835,-1.71621 25.59467,0.17019 48.11076,0.68325 50.03576,1.14013 1.925,0.45688 4.83342,0.87955 6.46316,0.93928 2.60378,0.0954 3.05445,-0.31343 3.71587,-3.3711 1.20148,-5.55434 0.60716,-6.10603 -5.90826,-5.48453 -3.17392,0.30276 -6.67077,0.83497 -7.77077,1.18269 -1.62153,0.51258 -46.66665,0.71945 -84.65122,0.38876 l -7.65123,-0.0666 -2.06225,-3.49525 c -1.31582,-2.23015 -3.79472,-4.31135 -6.848775,-5.75 -2.63259,-1.24011 -4.93653,-2.59225 -5.11986,-3.00475 -0.18334,-0.4125 -2.88759,-0.75 -6.00946,-0.75 -4.59311,0 -5.91443,-0.3816 -6.92514,-2 -1.0764,-1.7236 -2.33202,-2 -9.08556,-2 -6.32192,0 -8.15641,0.35345 -9.49152,1.82874 -0.91025,1.00581 -1.65499,2.35581 -1.65499,3 0,0.74325 -1.91848,1.17998 -5.25,1.19512 -2.8875,0.0131 -7.05,0.51681 -9.25,1.11931 -2.2,0.6025 -6.90454,1.37927 -10.45453,1.72614 l -6.45452,0.63069 -0.0455,9.5 -0.0455,9.5 4.85524,0.30909 c 3.10943,0.19795 5.61365,1.01565 6.96443,2.2741 3.14685,2.93174 7.4362,3.72111 26.68033,4.90997 9.625,0.59462 19.525,1.30601 22,1.58087 3.25084,0.36102 5.47157,-0.0243 8,-1.38819 z M 204.19658,23.340599 c -0.18707,-0.96457 0.31483,-1.66713 1.19098,-1.66713 1.85773,0 2.97896,1.63015 2.09972,3.05279 -0.90454,1.46356 -2.90118,0.62281 -3.2907,-1.38566 z M 59.019895,9.192519 c 0,-1.89985 3.36012,-2.72548 9.4881,-2.33134 7.13235,0.45873 7.01109,2.62326 -0.17206,3.07133 -3.19882,0.19954 -6.60354,0.44788 -7.56604,0.55188 -0.964,0.10415 -1.75,-0.47608 -1.75,-1.29187 z"
       />
  </g>
</svg>
